HIERARCHY
ROOT Hips
{
	OFFSET 0.000000 0.000000 0.000000 
	CHANNELS 6 Xposition Yposition Zposition Yrotation Zrotation Xrotation 
	JOINT Lumbar
	{
		OFFSET 0.000000 0.000000 0.000000 
		CHANNELS 3 Zrotation Xrotation Yrotation
		JOINT Neck
		{
			OFFSET 0.000000 0.445665 0.000000 
			CHANNELS 3 Zrotation Xrotation Yrotation
			End Site
			{
				OFFSET 0.000000 0.227535 0.000000 
			}
		}
		JOINT RightShoulder
		{
			OFFSET 0.019635 0.377685 0.194865 
			CHANNELS 3 Zrotation Xrotation Yrotation
			JOINT RightElbow
			{
				OFFSET 0.000000 -0.243375 0.000000 
				CHANNELS 2 Zrotation Yrotation
				JOINT RightWrist
				{
					OFFSET 0.000000 -0.264825 0.000000 
					CHANNELS 2 Zrotation Xrotation
					End Site
					{
						OFFSET 0.006600 -0.176220 0.000990 
					}
				}
			}
		}
		JOINT LeftShoulder
		{
			OFFSET 0.019635 0.377685 -0.194865 
			CHANNELS 3 Zrotation Xrotation Yrotation
			JOINT LeftElbow
			{
				OFFSET 0.000000 -0.243375 0.000000 
				CHANNELS 2 Zrotation Yrotation
				JOINT LeftWrist
				{
					OFFSET 0.000000 -0.264825 0.000000 
					CHANNELS 2 Zrotation Xrotation
					End Site
					{
						OFFSET 0.006600 -0.176220 -0.000990 
					}
				}
			}
		}
	}
	JOINT RightHip
	{
		OFFSET 0.052140 -0.069960 0.075570 
		CHANNELS 3 Zrotation Xrotation Yrotation
		JOINT RightKnee
		{
			OFFSET 0.000000 -0.402270 0.000000 
			CHANNELS 1 Zrotation
			JOINT RightAnkle
			{
				OFFSET 0.000000 -0.404085 0.000000 
				CHANNELS 3 Zrotation Xrotation Yrotation
				End Site
				{
					OFFSET 0.204105 -0.089430 0.008415 
				}
			}
		}
	}
	JOINT LeftHip
	{
		OFFSET 0.052140 -0.069960 -0.075570 
		CHANNELS 3 Zrotation Xrotation Yrotation
		JOINT LeftKnee
		{
			OFFSET 0.000000 -0.402270 0.000000 
			CHANNELS 1 Zrotation
			JOINT LeftAnkle
			{
				OFFSET 0.000000 -0.404085 0.000000 
				CHANNELS 3 Zrotation Xrotation Yrotation
				End Site
				{
					OFFSET 0.204105 -0.089430 -0.008415 
				}
			}
		}
	}
}
MOTION
Frames: 30
Frame Time: 0.02
-0.0226 -0.00666 0.53229 168.07533 -38.45714 -3.22455 42.94157 1.01486 -1.13725 -5.83746 -0.3505 -2.11994 11.24315 -13.89554 55.63407 113.82706 83.62247 51.85008 -2.37644 -15.63088 2.69723 -55.39064 104.14481 -101.7904 36.00057 0.76642 43.05009 -3.31842 -13.52716 -20.17889 -6.48752 -2.66491 -3.52298 57.74194 15.71674 -0.00933 -33.19247 -12.72208 4.22148 4.62768
-0.01992 -0.00704 0.53031 167.86312 -38.28441 -3.38329 42.88334 1.16655 -0.98057 -5.93582 -0.19256 -2.11994 11.21724 -13.7883 55.63407 113.66915 83.60119 51.98385 -2.42469 -15.60851 2.84882 -55.38959 104.15272 -101.88117 36.07261 0.75832 43.11364 -3.02094 -13.41215 -20.35322 -6.46365 -2.65727 -3.51807 57.62374 15.85358 -0.24822 -33.17526 -12.74121 4.21051 4.62311
-0.01783 -0.00778 0.52845 167.59686 -38.0468 -3.67959 42.8311 1.39286 -0.82204 -6.06884 0.02111 -2.11994 11.16456 -13.65799 55.63407 113.45426 83.57608 52.16863 -2.48516 -15.5598 3.0162 -55.38831 104.1163 -101.86542 36.04488 0.7586 43.08415 -2.58991 -13.05936 -20.55006 -6.4381 -2.67681 -3.52579 57.57551 16.1647 -0.96821 -33.16153 -12.85732 4.19108 4.61973
-0.01548 -0.00834 0.52654 167.36042 -37.84112 -3.90674 42.77737 1.57933 -0.66397 -6.18288 0.2066 -2.11994 11.12476 -13.53606 55.63407 113.26649 83.55156 52.32469 -2.54042 -15.52433 3.17716 -55.38716 104.10517 -101.89808 36.06273 0.75509 43.09729 -2.23064 -12.84353 -20.73558 -6.41329 -2.68134 -3.52652 57.49531 16.39856 -1.42594 -33.14899 -12.92463 4.1751 4.61534
-0.0131 -0.00898 0.52463 167.10046 -37.62369 -4.1625 42.7183 1.79072 -0.50374 -6.31102 0.40531 -2.11994 11.0827 -13.42193 55.63407 113.07298 83.5313 52.50394 -2.59488 -15.48414 3.33613 -55.38589 104.07464 -101.93232 36.08052 0.75134 43.10649 -1.82694 -12.51378 -20.9251 -6.38846 -2.6961 -3.53207 57.41524 16.62716 -2.05254 -33.12751 -13.01141 4.16067 4.61284
-0.01092 -0.00955 0.52275 166.87746 -37.41609 -4.39104 42.672 1.96819 -0.34906 -6.41755 0.589 -2.11994 11.03904 -13.28748 55.63407 112.87886 83.50167 52.64704 -2.65344 -15.447 3.50154 -55.38482 104.07233 -101.9375 36.07485 0.75015 43.10266 -1.48306 -12.35951 -21.11143 -6.36338 -2.69664 -3.53087 57.35197 16.90576 -2.45111 -33.12427 -13.08123 4.14117 4.60681
-0.00909 -0.00985 0.52092 166.76623 -37.24894 -4.5115 42.65724 2.03105 -0.20975 -6.45972 0.72089 -2.11994 10.99315 -13.0902 55.63409 112.68766 83.44481 52.67816 -2.72296 -15.42811 3.69325 -55.38433 104.16844 -101.88646 36.02233 0.75389 43.08665 -1.3388 -12.77553 -21.28868 -6.33736 -2.64827 -3.50642 57.3154 17.29512 -2.05769 -33.17225 -13.07585 4.10838 4.58975
-0.00744 -0.01009 0.51913 166.6949 -37.0946 -4.59962 42.65553 2.05766 -0.07684 -6.47831 0.83502 -2.11994 10.94716 -12.87542 55.63411 112.49939 83.37912 52.67107 -2.79563 -15.41246 3.88874 -55.38405 104.29258 -101.80981 35.95033 0.75996 43.0609 -1.25873 -13.37034 -21.4611 -6.31128 -2.58532 -3.47506 57.29392 17.72583 -1.42775 -33.23778 -13.05089 4.07103 4.56928
-0.00574 -0.01036 0.51735 166.60767 -36.93617 -4.70195 42.64931 2.10262 0.05843 -6.50507 0.95499 -2.11994 10.90399 -12.67696 55.63413 112.31605 83.31902 52.68129 -2.86503 -15.39314 4.07418 -55.38368 104.39727 -101.74615 35.89163 0.765 43.03924 -1.14787 -13.86455 -21.63246 -6.28566 -2.53109 -3.44788 57.26719 18.12716 -0.9374 -33.29379 -13.03798 4.03668 4.55103
-0.00395 -0.01062 0.51545 166.50889 -36.76795 -4.81108 42.63729 2.14231 0.19683 -6.54341 1.08631 -2.11994 10.84847 -12.44304 55.63415 112.10483 83.25212 52.69359 -2.94257 -15.38243 4.29469 -55.38328 104.52841 -101.67374 35.81188 0.77014 43.01563 -1.03928 -14.43264 -21.81839 -6.25813 -2.4689 -3.4167 57.23586 18.57875 -0.32958 -33.35648 -13.01529 3.99817 4.53003
-0.00237 -0.01088 0.51381 166.44461 -36.62423 -4.89664 42.64038 2.18334 0.32633 -6.55205 1.18907 -2.11994 10.81864 -12.27828 55.63417 111.95245 83.19732 52.69172 -3.00381 -15.3546 4.44365 -55.38299 104.61212 -101.61404 35.77115 0.77559 42.99509 -0.94285 -14.89192 -21.97243 -6.23462 -2.41956 -3.3921 57.21713 18.9339 0.0978 -33.40936 -13.0069 3.96726 4.51387
-0.0013 -0.01113 0.51286 166.46392 -36.54377 -4.92375 42.68187 2.23699 0.43969 -6.48019 1.21676 -2.11994 10.86289 -12.31618 55.63418 111.96808 83.17842 52.66061 -3.01868 -15.28174 4.38704 -55.38293 104.55463 -101.60347 35.85689 0.78073 42.98521 -0.86579 -15.01204 -22.04059 -6.22188 -2.40827 -3.38698 57.22614 19.00549 -0.04538 -33.43063 -13.04356 3.95931 4.51245
-0.00043 -0.01137 0.51217 166.51714 -36.48812 -4.92777 42.73806 2.29284 0.54313 -6.37985 1.21614 -2.11994 10.93252 -12.42307 55.63418 112.04201 83.17195 52.61619 -3.01709 -15.1913 4.25949 -55.38297 104.44936 -101.60581 35.98081 0.78614 42.97931 -0.79922 -15.01691 -22.07656 -6.21326 -2.41044 -3.38872 57.24753 18.97885 -0.37359 -33.44135 -13.09467 3.95908 4.51594
0.00052 -0.01161 0.51135 166.55644 -36.42223 -4.9426 42.78768 2.3473 0.64645 -6.29517 1.22859 -2.11994 10.98865 -12.49356 55.63419 112.08536 83.15962 52.57724 -3.02335 -15.1068 4.16897 -55.38296 104.36832 -101.59745 36.0782 0.79182 42.97214 -0.72742 -15.07222 -22.1265 -6.20298 -2.40699 -3.38752 57.26519 19.00122 -0.6048 -33.45711 -13.13811 3.95478 4.51681
0.00149 -0.01187 0.51055 166.59104 -36.35223 -4.95525 42.83758 2.40227 0.76865 -6.19829 1.23965 -2.11994 11.05315 -12.58449 55.63419 112.14576 83.1479 52.53941 -3.02814 -15.03025 4.05844 -55.38298 104.27734 -101.60784 36.21224 0.79604 42.96212 -0.6594 -15.14109 -22.179 -6.19179 -2.40103 -3.3854 57.27569 19.00752 -0.88113 -33.47277 -13.18549 3.9526 4.51913
0.00239 -0.01209 0.50979 166.64268 -36.29669 -4.9671 42.88987 2.45707 0.84982 -6.12027 1.24703 -2.11994 11.10612 -12.64974 55.63419 112.18481 83.13792 52.49659 -3.03209 -14.93395 3.97259 -55.38296 104.1957 -101.58347 36.28098 0.80317 42.95934 -0.58563 -15.15294 -22.21864 -6.18349 -2.40356 -3.38685 57.30351 19.0224 -1.11226 -33.4855 -13.22844 3.948 4.5197
0.0031 -0.01224 0.5091 166.73549 -36.27381 -4.98453 42.94807 2.51176 0.81509 -6.10214 1.25182 -2.11994 11.12232 -12.62511 55.63418 112.14774 83.13043 52.4433 -3.03724 -14.77839 3.97314 -55.3828 104.14861 -101.45206 36.1454 0.81953 42.97383 -0.48938 -15.028 -22.22997 -6.18216 -2.42729 -3.39686 57.37897 19.09319 -1.15799 -33.49607 -13.25473 3.93385 4.51361
0.00375 -0.01235 0.50846 166.84367 -36.26485 -5.00172 43.00762 2.56619 0.7403 -6.10391 1.25385 -2.11994 11.12583 -12.57274 55.63416 112.0877 83.12419 52.38561 -3.04214 -14.60513 4.00076 -55.3826 104.11293 -101.28646 35.94542 0.83842 42.99588 -0.3875 -14.85059 -22.22956 -6.18361 -2.45893 -3.41017 57.4709 19.1743 -1.15569 -33.50336 -13.27629 3.9172 4.50571
0.00443 -0.01248 0.5078 166.94298 -36.25015 -5.01776 43.06453 2.62036 0.68729 -6.09613 1.25679 -2.11994 11.13429 -12.5345 55.63414 112.04009 83.1169 52.33009 -3.04748 -14.44597 4.01542 -55.38242 104.07393 -101.14227 35.78492 0.85551 43.01568 -0.29047 -14.7008 -22.23502 -6.18382 -2.48633 -3.42175 57.55323 19.245 -1.18681 -33.50985 -13.30069 3.90235 4.49907
0.0051 -0.01262 0.50712 167.05132 -36.23359 -5.03824 43.13032 2.6763 0.61919 -6.0895 1.26016 -2.11994 11.14698 -12.49216 55.63411 111.98612 83.11195 52.27339 -3.051 -14.26102 4.03049 -55.38223 104.02567 -100.97521 35.58348 0.87594 43.03056 -0.18391 -14.52961 -22.23729 -6.18408 -2.51702 -3.43459 57.64462 19.3362 -1.176 -33.52555 -13.32272 3.88496 4.49076
0.00578 -0.01272 0.50651 167.14423 -36.22421 -5.0498 43.17798 2.72831 0.57273 -6.08553 1.26237 -2.11994 11.14762 -12.45095 55.6341 111.93917 83.10241 52.21825 -3.05833 -14.12533 4.05191 -55.38206 103.99968 -100.84566 35.45047 0.88926 43.05746 -0.09606 -14.39395 -22.2436 -6.18481 -2.54242 -3.44541 57.72129 19.38874 -1.23788 -33.52153 -13.34833 3.87216 4.48541
0.00651 -0.01274 0.50605 167.189 -36.22844 -5.0362 43.17323 2.77075 0.59954 -6.08468 1.26213 -2.11994 11.11717 -12.41894 55.63411 111.91694 83.07863 52.16874 -3.07752 -14.1342 4.08597 -55.38197 104.03566 -100.84459 35.53101 0.88938 43.11563 -0.05808 -14.35231 -22.26618 -6.1864 -2.55262 -3.4507 57.7495 19.32972 -1.51872 -33.46316 -13.38519 3.87283 4.48892
0.00726 -0.01273 0.50565 167.21779 -36.23982 -5.01387 43.1505 2.80899 0.64894 -6.08584 1.26095 -2.11994 11.0751 -12.38884 55.63413 111.90232 83.05036 52.12096 -3.10042 -14.19256 4.1255 -55.3819 104.09329 -100.87993 35.68083 0.88132 43.18566 -0.03954 -14.35144 -22.29298 -6.1883 -2.55695 -3.45367 57.76295 19.23241 -1.87207 -33.38526 -13.42568 3.87813 4.49541
0.008 -0.01274 0.50523 167.25498 -36.24964 -4.996 43.13725 2.84832 0.68556 -6.0858 1.26029 -2.11994 11.03882 -12.35798 55.63414 111.88408 83.0249 52.07228 -3.12085 -14.22559 4.16176 -55.38182 104.13915 -100.88686 35.79284 0.87191 43.25024 -0.01425 -14.34426 -22.31653 -6.18986 -2.56301 -3.45708 57.78556 19.15452 -2.18727 -33.3168 -13.46432 3.88115 4.50035
0.00877 -0.01274 0.50481 167.28823 -36.25281 -4.97592 43.11851 2.89111 0.73113 -6.08765 1.25913 -2.11994 10.99991 -12.32567 55.63416 111.86573 82.99626 52.0239 -3.14453 -14.26998 4.20232 -55.38175 104.1936 -100.94004 35.9291 0.88244 43.31515 0.01958 -14.2858 -22.34525 -6.19231 -2.57318 -3.4631 57.79843 19.06809 -2.52359 -33.24577 -13.50377 3.88483 4.50605
0.00947 -0.01274 0.5044 167.32531 -36.27136 -4.9585 43.10693 2.92569 0.76426 -6.08578 1.25884 -2.11994 10.96391 -12.29728 55.63417 111.84976 82.97313 51.97536 -3.16236 -14.30271 4.23476 -55.38167 104.23509 -100.9093 36.03246 0.85139 43.38229 0.03152 -14.34176 -22.36439 -6.19299 -2.57345 -3.46322 57.82781 18.99063 -2.83281 -33.17557 -13.54232 3.88826 4.51089
0.00999 -0.01271 0.50401 167.38001 -36.33038 -4.94949 43.11938 2.93854 0.75513 -6.07294 1.26114 -2.11994 10.93857 -12.27852 55.63418 111.83806 82.96659 51.92627 -3.16287 -14.29122 4.24451 -55.38156 104.23616 -100.60898 36.0255 0.69083 43.45107 -0.01749 -14.72843 -22.35601 -6.18844 -2.54651 -3.44651 57.90671 18.94389 -3.05806 -33.11195 -13.57861 3.89015 4.51277
0.01045 -0.01267 0.50363 167.4384 -36.40458 -4.94365 43.13966 2.94327 0.73339 -6.05623 1.26438 -2.11994 10.9167 -12.26387 55.63418 111.82866 82.9657 51.87701 -3.15741 -14.26639 4.24562 -55.38145 104.22331 -100.22813 35.98383 0.49158 43.52191 -0.08696 -15.22491 -22.33796 -6.18213 -2.50999 -3.42412 58.00256 18.90795 -3.25262 -33.04996 -13.61375 3.8916 4.51369
0.01094 -0.01263 0.50325 167.49305 -36.47194 -4.93703 43.15644 2.95179 0.71914 -6.0413 1.26724 -2.11994 10.89343 -12.248 55.63419 111.81862 82.96202 51.82755 -3.15488 -14.24771 4.2498 -55.38134 104.21631 -99.9038 35.96001 0.32132 43.59287 -0.14353 -15.6546 -22.32441 -6.17681 -2.47873 -3.40508 58.09041 18.86941 -3.45522 -32.98753 -13.64865 3.89305 4.51495
0.01143 -0.01259 0.50287 167.5561 -36.53942 -4.92728 43.1724 2.95981 0.69808 -6.02631 1.26988 -2.11994 10.86884 -12.22958 55.63419 111.8072 82.95909 51.77901 -3.15158 -14.23031 4.25762 -55.38122 104.21194 -99.49823 35.92981 0.10361 43.65993 -0.21567 -16.15524 -22.31042 -6.17074 -2.44357 -3.38279 58.17914 18.82034 -3.68334 -32.92307 -13.68668 3.89546 4.51666
